<?xml version="1.0" encoding="UTF-8"?>
<svg version="1.1" xmlns="http://www.w3.org/2000/svg" width="1024" height="1024">
<path d="M0 0 C337.92 0 675.84 0 1024 0 C1024 337.92 1024 675.84 1024 1024 C686.08 1024 348.16 1024 0 1024 C0 686.08 0 348.16 0 0 Z " fill="#FCFCFC" transform="translate(0,0)"/>
<path d="M0 0 C4.9763962 -0.02512941 9.95275371 -0.04305808 14.92919922 -0.05493164 C16.61442713 -0.0598929 18.29965091 -0.06666403 19.98486328 -0.07543945 C35.42372383 -0.15369247 50.51705005 0.07911504 65.6875 3.3125 C66.76475342 3.53615234 67.84200684 3.75980469 68.9519043 3.99023438 C79.83303821 6.30127167 89.92302615 9.41488121 100.14453125 13.84375 C103.58348135 15.23626604 107.05162315 16.23279271 110.6484375 17.12890625 C113.77851192 18.28838564 116.23778994 20.1322525 119 22 C121.31624468 23.20023588 123.65041136 24.36642654 126 25.5 C130.59683351 27.71777055 134.80791797 30.08772592 139 33 C140.28583984 33.88171875 140.28583984 33.88171875 141.59765625 34.78125 C145.84025558 37.73963939 149.99064294 40.72920871 154 44 C155.97391377 45.45403525 157.95147959 46.90238139 159.9375 48.33984375 C162.48705807 50.39204485 164.71320319 52.65851149 167 55 C175.8466397 63.97630876 175.8466397 63.97630876 185.19921875 72.41796875 C187.70402376 74.61850243 190.00858314 76.99737556 192.34375 79.375 C193.88122325 80.88346432 195.45733559 82.26364129 197.125 83.625 C199.9367859 85.94777966 202.42395739 88.42022399 205 91 C206.97992315 92.87627976 208.98757948 94.7211863 211 96.5625 C211.50789063 97.03107422 212.01578125 97.49964844 212.5390625 97.98242188 C214.85828012 100.10837136 217.19587671 102.15429235 219.66796875 104.1015625 C221.84953699 105.87751253 223.53343326 107.64495218 225.3125 109.8125 C227.5743078 112.45529461 229.83967059 114.82343751 232.5 117.0625 C236.73725116 120.64595655 240.60074307 124.55821441 244.5 128.5 C248.97057178 133.01494878 253.45206517 137.41487523 258.30078125 141.52734375 C262.39015365 145.0714665 266.17438238 148.90603826 269.5625 153.125 C272.13877985 156.16368905 274.91265964 158.49153595 278 161 C280.3825725 163.2537848 282.62941244 165.57508123 284.78515625 168.046875 C291.12457585 175.29869705 298.03172585 181.78953767 305.13085938 188.28808594 C306.8995866 189.90803307 308.66180937 191.5347152 310.421875 193.1640625 C316.18625291 198.5001539 316.18625291 198.5001539 322.16015625 203.59765625 C324.36675852 205.46431429 326.10893102 207.12627863 327.875 209.375 C329.97782899 211.92635485 332.17075195 214.09464009 334.6953125 216.2265625 C339.72990585 220.5743585 344.34492113 225.29306412 349 230.0390625 C352.94197116 234.02722863 356.98839024 237.80397208 361.23681641 241.46386719 C363.30896106 243.26917516 365.26301365 245.16358321 367.1875 247.125 C367.85136719 247.79660156 368.51523437 248.46820312 369.19921875 249.16015625 C370.63419116 250.62625604 372.06739846 252.09408342 373.5 253.5625 C377.45787563 257.42142874 381.65069548 261.01363606 385.87109375 264.58203125 C390.05592076 268.15783978 393.95800387 271.94813624 397.8125 275.875 C402.34936504 280.48447766 407.07789164 284.62659336 412.1484375 288.65234375 C415.40864952 291.33643611 418.48388747 294.17436342 421.5625 297.0625 C426.07201517 301.28146213 430.66745972 305.27696062 435.546875 309.0703125 C437.27185417 310.42722287 438.96765544 311.82164826 440.640625 313.2421875 C449.58396225 320.83124796 459.15383238 326.57128749 470 331 C471.15628906 331.49628906 472.31257812 331.99257813 473.50390625 332.50390625 C480.24853413 335.35226946 486.71968892 337.67393963 494.0234375 338.67578125 C496 339 496 339 497 340 C501.30161341 340.6599066 505.65697203 340.79980228 510 341 C511.34964844 341.06912598 511.34964844 341.06912598 512.7265625 341.13964844 C532.93133441 342.05259493 549.63292887 338.40195807 568 330 C569.13179687 329.53207031 570.26359375 329.06414062 571.4296875 328.58203125 C586.54600529 321.88388168 598.70552007 310.83985202 610 299 C610.68320312 298.28714844 611.36640625 297.57429688 612.0703125 296.83984375 C616.27658798 292.26028408 619.15317641 287.50118587 622 282 C622.65724517 280.81348696 623.31764824 279.62872003 623.98046875 278.4453125 C627.86823784 271.44519151 631.12912537 264.84053568 633 257 C634.875 250.27205882 634.875 250.27205882 636.0625 247.6875 C641.79261565 231.26116848 639.08096666 207.27412328 634 191 C633.34 190.01 632.68 189.02 632 188 C631.63570906 186.65383115 631.30709975 185.29785592 631 183.9375 C627.58771137 172.09894762 620.12615866 160.17143218 612 151 C611.21367188 150.071875 610.42734375 149.14375 609.6171875 148.1875 C602.8669594 140.38349188 595.33482545 134.05088839 587 128 C585.96488281 127.24460937 584.92976562 126.48921875 583.86328125 125.7109375 C575.17841581 119.64856084 566.02153365 115.78884467 555.9375 112.67578125 C554 112 554 112 552.234375 110.98828125 C549.02033812 109.56668802 545.70777518 109.27372266 542.25 108.875 C541.20392578 108.74544922 541.20392578 108.74544922 540.13671875 108.61328125 C538.42527668 108.40228154 536.71273371 108.20024499 535 108 C535 107.34 535 106.68 535 106 C506.48112427 106.31548632 478.82259175 108.30528954 455 126 C453.43572266 127.16015625 453.43572266 127.16015625 451.83984375 128.34375 C448.5185693 130.84434794 445.25234616 133.41065542 442 136 C441.04867187 136.75539063 440.09734375 137.51078125 439.1171875 138.2890625 C433.49787765 142.81973113 428.10263925 147.54748411 422.80078125 152.4453125 C420.61421173 154.43975666 418.4065031 156.39258904 416.171875 158.33203125 C411.29430066 162.58518876 406.60803242 167.03103099 401.91210938 171.48242188 C398.18277548 175.00155036 394.40498003 178.42523893 390.47802734 181.72314453 C389.161245 182.86070179 387.91793737 184.08206263 386.6875 185.3125 C383.41148938 188.58851062 379.96443388 191.64406493 376.5 194.71875 C372.54726119 198.32562417 368.84813509 202.15693367 365.15234375 206.0234375 C363.74765195 207.47420636 362.34269844 208.92472186 360.9375 210.375 C359.87692383 211.49841797 359.87692383 211.49841797 358.79492188 212.64453125 C357.7652832 213.69833984 357.7652832 213.69833984 356.71484375 214.7734375 C356.09730225 215.41716309 355.47976074 216.06088867 354.84350586 216.72412109 C353 218 353 218 350.90161133 217.82641602 C348.15731154 216.63377835 346.69507657 214.81374603 344.75 212.5625 C343.69039062 211.35787109 343.69039062 211.35787109 342.609375 210.12890625 C341 208 341 208 341 206 C340.40832031 205.73703125 339.81664062 205.4740625 339.20703125 205.203125 C336.90135622 203.94622604 335.4827015 202.65231376 333.6875 200.75 C331.30625958 198.28682443 328.88516697 196.00197277 326.25 193.8125 C324.30902651 192.19070882 322.89388579 190.85715395 321.375 188.8125 C320.06084537 186.84212205 320.06084537 186.84212205 317.7265625 185.66015625 C311.06079796 181.60148873 305.42681529 175.5659644 300 170 C295.06560202 164.96997415 290.09248643 160.07878474 284.7265625 155.5078125 C284.15679687 155.01023437 283.58703125 154.51265625 283 154 C282.40960938 153.52304687 281.81921875 153.04609375 281.2109375 152.5546875 C280 151 280 151 280.0078125 149.0703125 C281.40114183 146.16297177 283.3234256 144.8338574 285.875 142.875 C293.67738617 136.70614331 301.23679175 130.37604757 307.54296875 122.65234375 C310.84046651 118.91282217 314.7885968 115.77637306 318.66796875 112.66015625 C321.71130541 110.21140464 324.0958965 107.65658176 326.51953125 104.60546875 C329.0020087 101.91338898 331.96244648 99.84420168 334.875 97.640625 C338.27602697 95.01483212 341.10926847 92.03070363 343.9140625 88.78515625 C348.69341225 83.30494779 353.65633978 78.67554082 359.35546875 74.1640625 C363.1806173 71.03388186 366.57546832 67.55457719 370 64 C374.27563713 59.65427045 378.74860768 55.57428523 383.28125 51.5 C385.0741204 49.85138354 386.82743486 48.15854082 388.53515625 46.421875 C398.8502492 36.28660142 412.96787044 28.10273231 426 22 C427.485 21.2265625 427.485 21.2265625 429 20.4375 C435.27096244 17.43266383 441.74176348 15.02732917 448.359375 12.91015625 C451.06627897 11.97715533 453.71044714 10.91865736 456.36767578 9.85400391 C466.0408898 6.03977868 475.7467381 3.67468549 486 2 C486.72477539 1.88140625 487.44955078 1.7628125 488.19628906 1.640625 C500.35089296 -0.2098267 512.60918369 -0.20332619 524.875 -0.25 C525.66646423 -0.25535767 526.45792847 -0.26071533 527.27337646 -0.26623535 C540.888865 -0.33610361 553.85489405 1.16280372 567.1875 4 C568.00541016 4.165 568.82332031 4.33 569.66601562 4.5 C570.84260742 4.7475 570.84260742 4.7475 572.04296875 5 C572.73414795 5.144375 573.42532715 5.28875 574.13745117 5.4375 C576 6 576 6 579 8 C580.91187614 8.49605435 582.82537661 8.98716514 584.74853516 9.4375 C588.63121183 10.40753763 592.39902805 11.71706398 596.1875 13 C596.96802734 13.26039063 597.74855469 13.52078125 598.55273438 13.7890625 C623.12160226 22.04120133 647.42288791 36.93636205 666.31640625 54.5703125 C668.79622165 56.81550199 671.34017159 58.84966462 674 60.875 C680.03838572 65.61738878 684.94819718 71.25328149 690 77 C690.63808594 77.70125 691.27617188 78.4025 691.93359375 79.125 C706.0430835 94.76600481 717.87702719 113.57549981 726 133 C726.67675781 134.26650391 726.67675781 134.26650391 727.3671875 135.55859375 C732.69137054 145.53150378 736.93835418 156.50516124 736 168 C736.66 168 737.32 168 738 168 C738.44048083 169.99934561 738.87713095 171.99953504 739.3125 174 C739.55613281 175.11375 739.79976562 176.2275 740.05078125 177.375 C740.19008057 178.06827393 740.32937988 178.76154785 740.47290039 179.47583008 C740.86551934 181.3560002 741.30140757 183.2272355 741.75952148 185.0925293 C744.49761636 197.36536791 744.48982506 209.55560123 744.44604492 222.08911133 C744.43754016 225.7950003 744.4663781 229.49934057 744.49804688 233.20507812 C744.53798022 247.00874453 743.55304398 259.65585378 740 273 C739.45620855 275.24948742 738.91407245 277.49937705 738.375 279.75 C737.92193326 281.50137088 737.46437665 283.25159393 737 285 C736.67 286.258125 736.34 287.51625 736 288.8125 C734.8964036 292.33021353 733.47388621 295.62234409 732 299 C731.32750043 300.99804624 730.66151931 302.99829157 730 305 C727.56600887 311.82179826 725.23440938 318.07182687 721 324 C720.43111561 325.23785029 719.88981483 326.48870366 719.375 327.75 C718 331 718 331 716 333 C715.70351563 333.75023437 715.40703125 334.50046875 715.1015625 335.2734375 C709.03440473 350.29072872 695.47172533 365.75735675 684 377 C683.175 377.825 682.35 378.65 681.5 379.5 C679 382 676.5 384.5 674 387 C672.77410156 388.27037109 672.77410156 388.27037109 671.5234375 389.56640625 C669.02072083 391.98001691 666.46987433 393.94445767 663.625 395.9375 C659.77387936 398.68090583 656.12295459 401.48714358 652.6328125 404.67578125 C650.54700195 406.36738359 648.3130572 407.63059388 646 409 C644.67125932 409.86224581 643.34608196 410.72999421 642.0234375 411.6015625 C631.69626739 418.34620197 621.27225981 423.97178679 610.02978516 429.02539062 C608.05358572 429.9742706 606.19910872 431.02866419 604.3203125 432.15625 C601.15576009 433.91350734 598.64362084 434.77529761 595.125 435.5 C591.26145019 436.37567381 587.87356382 437.39124213 584.3125 439.125 C580.61328743 440.89098937 577.41797316 441.52324272 573.3359375 441.7265625 C570.10561371 442.10469405 567.11986866 443.08921032 564 444 C543.55381483 448.74805856 522.8766552 448.15217927 502 448 C502 447.34 502 446.68 502 446 C500.90945313 446.04640625 499.81890625 446.0928125 498.6953125 446.140625 C490.33152509 446.3829587 482.49396108 446.04606412 474.3125 444.1875 C473.58369629 444.02217773 472.85489258 443.85685547 472.10400391 443.68652344 C467.50198144 442.55858717 463.35275612 440.89228209 459 439 C457.03359817 438.45194478 455.0538439 437.94905473 453.0625 437.5 C424.37127056 431.01261569 397.33134158 412.07283404 377.26171875 391.19140625 C374.32253275 388.15011454 371.38021042 385.46377177 367.9375 383 C364.58880743 380.57685777 362.13908062 377.96046257 359.5390625 374.76953125 C357.35442265 372.2577499 354.87817012 370.17851868 352.34765625 368.0234375 C349.45200692 365.52768649 346.63010304 362.95816324 343.8125 360.375 C343.31347168 359.91963867 342.81444336 359.46427734 342.30029297 358.99511719 C340.00073906 356.88598195 337.74774902 354.74734799 335.54296875 352.5390625 C332.60444825 349.60505586 329.56432518 346.80126246 326.5 344 C321.73574711 339.6447433 317.13736357 335.16874411 312.60546875 330.5703125 C311.80753906 329.76335937 311.00960938 328.95640625 310.1875 328.125 C309.39730469 327.32320312 308.60710937 326.52140625 307.79296875 325.6953125 C305.70179932 323.67726088 303.60367038 321.78643446 301.3984375 319.90234375 C295.79331696 315.04127742 290.64484699 309.71525052 285.4375 304.4375 C277.21789235 296.05680836 277.21789235 296.05680836 268.46582031 288.24291992 C266.17130629 286.29732184 264.09702806 284.15443463 262 282 C261.05697027 281.04330317 260.11291395 280.08761744 259.16796875 279.1328125 C258.68416748 278.64385498 258.20036621 278.15489746 257.7019043 277.65112305 C252.10490902 271.9987168 252.10490902 271.9987168 246.1875 266.6875 C241.34756311 262.57811962 236.9701325 257.99708711 232.50878906 253.48706055 C228.68036799 249.63217352 224.77644383 245.9717548 220.62109375 242.46875 C218.36239368 240.42231331 216.50223704 238.10897951 214.56640625 235.76171875 C209.84743837 230.45435089 203.95805168 225.78747895 198.1640625 221.70703125 C192.97337229 217.99797484 189.08395057 213.8722285 185 209 C179.51902478 202.64726222 174.04815163 196.89729065 167.32421875 191.8515625 C164.67076452 189.73771829 162.36619221 187.43092088 160 185 C159.05700866 184.04326533 158.11296307 183.08756883 157.16796875 182.1328125 C156.44130005 181.39840942 156.44130005 181.39840942 155.69995117 180.64916992 C151.19901495 176.11335962 146.66116302 171.71971202 141.79296875 167.57421875 C139.94570371 165.9523281 138.22243286 164.25339795 136.5 162.5 C133.4898884 159.44221695 130.33933372 156.60901793 127.08984375 153.80859375 C124.93104998 151.94032924 122.80935912 150.03505144 120.6875 148.125 C113.78832621 141.98974856 106.79345296 135.97454444 99 131 C97.34987062 129.86036215 95.70447531 128.71385506 94.0625 127.5625 C93.19882812 126.96050781 92.33515625 126.35851562 91.4453125 125.73828125 C89.98369766 124.6992739 88.53540644 123.64047013 87.1171875 122.54296875 C83.37995484 119.66616873 79.91474468 118.10757703 75.40234375 116.75 C70.30474981 115.15855604 65.37381885 113.01839759 60.46875 110.9140625 C58.14101304 110.05221052 56.20891279 109.65805134 53.75 109.4375 C50 109 50 109 49 108 C31.58387583 105.28187657 3.3460262 102.76931586 -12 113 C-12.969375 113.2475 -13.93875 113.495 -14.9375 113.75 C-19.73895473 115.00434149 -23.96603827 117.4439137 -28.328125 119.7578125 C-31 121 -31 121 -34 121 C-34 121.66 -34 122.32 -34 123 C-34.87398437 123.4125 -35.74796875 123.825 -36.6484375 124.25 C-63.29937405 138.16564053 -80.8105556 165.38913171 -89.95703125 193.234375 C-92.39077453 202.0213732 -93.35905276 210.1881581 -93.3125 219.3125 C-93.30831055 220.44171875 -93.30412109 221.5709375 -93.29980469 222.734375 C-93.12844724 235.69920638 -92.65820254 249.94180388 -87.00390625 261.85546875 C-85.91780004 264.17559446 -85.24020001 266.4862849 -84.5 268.9375 C-82.45153595 274.66500548 -79.35263061 279.62795465 -76.125 284.75 C-75.61904297 285.55429443 -75.11308594 286.35858887 -74.59179688 287.18725586 C-71.76937659 291.56445291 -68.79403668 295.61586357 -65.32299805 299.50097656 C-64.04714759 300.94657941 -62.864619 302.4729267 -61.6875 304 C-58.88085931 307.4344419 -55.36673639 309.8958712 -51.79296875 312.484375 C-51.20128906 312.98453125 -50.60960937 313.4846875 -50 314 C-50 314.66 -50 315.32 -50 316 C-49.30261719 316.23976563 -48.60523438 316.47953125 -47.88671875 316.7265625 C-44.49125263 318.22442712 -41.80444771 320.18114796 -38.8125 322.375 C-33.43413531 326.21190666 -28.22631818 328.84591957 -22 331 C-20.45623738 331.64080713 -18.91462336 332.28681059 -17.375 332.9375 C-12.91410535 334.71903004 -8.38814045 336.2332389 -3.8125 337.6875 C-2.81452393 338.00932251 -2.81452393 338.00932251 -1.79638672 338.33764648 C17.71667822 344.41274314 41.87893742 342.62138114 61 336 C61.9887915 335.67104736 61.9887915 335.67104736 62.99755859 335.33544922 C81.8586962 328.93330869 97.54158424 318.201554 111.96875 304.6875 C114 303 114 303 116 303 C116.33 302.01 116.66 301.02 117 300 C119.00390625 298.23828125 119.00390625 298.23828125 121.5625 296.3125 C125.7145863 293.08769329 129.41691943 289.69692568 133.07421875 285.9296875 C134.95942291 284.04065939 136.91060949 282.29755026 138.9375 280.5625 C144.41040484 275.85450903 149.40119268 270.6654434 154.4375 265.5 C156.68290605 263.30935995 158.97403441 261.21485795 161.3125 259.125 C176.89935279 245.29683509 176.89935279 245.29683509 191 230 C195.31567617 230.83816851 196.28414998 232.5297472 199 236 C200.18770656 237.08550855 201.39865274 238.14584359 202.625 239.1875 C208.48634006 244.19428955 213.88616236 249.70168006 219.17578125 255.3046875 C221.61208479 257.62979046 224.07133104 259.65590963 226.72265625 261.72265625 C232.0422256 265.92335303 236.72525911 270.57705704 241.4375 275.4375 C247.30586235 281.40702119 253.11914251 287.11725892 259.7734375 292.2109375 C262.39916708 294.32073425 264.74783866 296.4931773 267 299 C267 299.99 267 300.98 267 302 C264.6640625 303.82421875 264.6640625 303.82421875 261.625 305.6875 C260.62726563 306.31011719 259.62953125 306.93273437 258.6015625 307.57421875 C256 309 256 309 254 309 C253.77570313 309.55042969 253.55140625 310.10085938 253.3203125 310.66796875 C251.58906024 313.72583148 249.37762275 315.84821826 246.875 318.3125 C246.3814502 318.79960449 245.88790039 319.28670898 245.37939453 319.78857422 C242.01581588 323.08228301 238.54079253 326.20397699 234.9609375 329.2578125 C231.90770829 331.97044244 229.0859685 334.90600453 226.21875 337.8125 C223.59228878 340.40196881 220.83023542 342.78836964 218.03125 345.1875 C215.76361428 347.2109288 213.6342305 349.33653347 211.5 351.5 C208.19043503 354.84903168 204.78942539 357.99600657 201.22265625 361.06640625 C194.57037789 366.85353769 188.10331088 372.82195327 181.9375 379.125 C177.68696541 383.4440916 173.13303791 387.19956432 168.3984375 390.97265625 C166.43031481 392.63626484 164.87844329 394.16438535 163.3125 396.1875 C160.29807058 399.85369795 156.87461012 402.29461412 153 405 C151.98035156 405.71542969 150.96070313 406.43085937 149.91015625 407.16796875 C146.62060532 409.4657026 143.3106925 411.73285087 140 414 C139.21496094 414.54914063 138.42992187 415.09828125 137.62109375 415.6640625 C131.36267164 419.97465158 124.73251235 423.49049888 118 427 C117.05382812 427.51691406 116.10765625 428.03382813 115.1328125 428.56640625 C103.87324744 434.53927802 91.5045324 438.42128357 79.10546875 441.27734375 C76.73413726 441.82916303 74.39850551 442.42703317 72.05078125 443.06640625 C62.18709896 445.67724777 53.18550605 446.49351039 43 446 C43 446.66 43 447.32 43 448 C-14.15360745 448.98280013 -14.15360745 448.98280013 -38.80859375 439.55078125 C-42.46203949 438.16235 -46.15715975 437.01922952 -49.90258789 435.90722656 C-68.70950997 430.29049003 -68.70950997 430.29049003 -75 424 C-76.56488252 423.33014021 -78.1518214 422.71099882 -79.75 422.125 C-83.93610867 420.49474655 -87.32898817 418.6221513 -91 416 C-92.72594492 414.91154119 -94.45551472 413.82882134 -96.1875 412.75 C-111.90496162 402.76153184 -127.49319862 391.04209024 -139.51953125 376.73046875 C-141.11620337 374.81167007 -141.11620337 374.81167007 -143.5625 372.5 C-146.14328682 369.85303916 -148.23650588 367.06319549 -150.41015625 364.08203125 C-151.95026414 362.0651332 -153.58803563 360.23487266 -155.3125 358.375 C-159.85911709 353.26508522 -163.37947037 347.47487162 -166.96289062 341.67480469 C-167.885551 340.18482113 -168.82446641 338.70493109 -169.765625 337.2265625 C-172.78055609 332.39962737 -175.06675615 327.62428014 -177.0703125 322.30078125 C-177.90888439 320.225492 -178.84518014 318.41127163 -180 316.5 C-183.86497995 310.02805318 -186.17788455 302.84585547 -188.19140625 295.6171875 C-188.86599521 293.4337353 -189.62654921 291.35033808 -190.453125 289.22265625 C-192.02904661 285.06817483 -193.17736183 280.88610797 -194.1875 276.5625 C-194.3618457 275.82330322 -194.53619141 275.08410645 -194.71582031 274.32250977 C-195.88759835 269.10740956 -196.38962226 264.35730606 -196 259 C-196.66 259 -197.32 259 -198 259 C-200.30296864 250.13402589 -200.27214051 241.55514853 -200.20581055 232.46191406 C-200.1876882 229.90158941 -200.18530068 227.34163188 -200.18554688 224.78125 C-200.1269552 196.39221505 -200.1269552 196.39221505 -196.6953125 185.34765625 C-196.05094016 183.17199458 -195.6564844 181.12233516 -195.375 178.875 C-195 176 -195 176 -194 175 C-193.70390396 173.36401612 -193.41328838 171.72685087 -193.15039062 170.08520508 C-192.0178706 163.09614905 -190.37127869 156.4868854 -188 149.8125 C-187.75096924 149.10673828 -187.50193848 148.40097656 -187.24536133 147.67382812 C-185.83387836 143.83096982 -184.10042635 140.49501837 -182 137 C-181.27312814 134.95104422 -180.58921391 132.8865857 -179.9375 130.8125 C-177.81456522 124.70180325 -175.13920706 119.15312255 -172 113.5 C-171.37726196 112.3704187 -171.37726196 112.3704187 -170.74194336 111.21801758 C-168.18830682 106.72166954 -165.37776545 102.90903651 -162 99 C-161.05657881 97.62210852 -160.13677662 96.22751085 -159.25 94.8125 C-152.32758167 84.28831579 -143.6417881 75.11535313 -135 66 C-133.93265625 64.86884766 -133.93265625 64.86884766 -132.84375 63.71484375 C-124.15492825 54.75894756 -114.0412434 47.35548071 -104 40 C-103.1440625 39.36964844 -102.288125 38.73929687 -101.40625 38.08984375 C-93.19735772 32.17996086 -84.37105181 27.60303722 -75.3125 23.14453125 C-73.9085854 22.44968838 -72.51074639 21.74212258 -71.125 21.01171875 C-66.67865701 18.68313826 -62.0896492 16.75188394 -57.4375 14.875 C-56.81206299 14.62113525 -56.18662598 14.36727051 -55.54223633 14.10571289 C-51.41890918 12.46732269 -47.27581184 11.17472828 -43 10 C-40.4743092 9.20202812 -37.95044859 8.39934603 -35.4296875 7.5859375 C-32.86848932 6.96828521 -30.62456122 6.89725917 -28 7 C-28 6.34 -28 5.68 -28 5 C-18.4823267 2.78842446 -9.82252062 1.55276888 0 2 C0 1.34 0 0.68 0 0 Z " fill="#020202" transform="translate(218,285)"/>
</svg>
